<?xml version="1.0" standalone="no"?><!DOCTYPE svg PUBLIC "-//W3C//DTD SVG 1.1//EN" "http://www.w3.org/Graphics/SVG/1.1/DTD/svg11.dtd"><svg t="1618407314897" class="icon" viewBox="0 0 1024 1024" version="1.1" xmlns="http://www.w3.org/2000/svg" p-id="2760" width="32" height="32" xmlns:xlink="http://www.w3.org/1999/xlink"><defs><style type="text/css"></style></defs><path d="M819.2 960H204.8C128 960 64 896 64 819.2V211.2C64 128 128 64 204.8 64h608C896 64 960 128 960 211.2v608c0 76.8-64 140.8-140.8 140.8zM204.8 96c-64 0-115.2 51.2-115.2 108.8v608c0 64 51.2 115.2 115.2 115.2h608c64 0 115.2-51.2 115.2-115.2V211.2c0-64-51.2-108.8-115.2-108.8H204.8z" fill="#CCCCCC" p-id="2761"></path><path d="M198.4 550.4C192 544 192 537.6 192 531.2l12.8-19.2c6.4-6.4 12.8-6.4 19.2-6.4l115.2 89.6c12.8 12.8 38.4 12.8 51.2 0L729.6 320c6.4-6.4 19.2-6.4 25.6 0l6.4 6.4c6.4 6.4 6.4 19.2 0 25.6l-364.8 358.4c-12.8 12.8-32 12.8-44.8 0L198.4 550.4z" fill="#318BF3" p-id="2762"></path></svg>