<?xml version="1.0" standalone="no"?><!DOCTYPE svg PUBLIC "-//W3C//DTD SVG 1.1//EN" "http://www.w3.org/Graphics/SVG/1.1/DTD/svg11.dtd"><svg t="1618407362659" class="icon" viewBox="0 0 1024 1024" version="1.1" xmlns="http://www.w3.org/2000/svg" p-id="3190" width="32" height="32" xmlns:xlink="http://www.w3.org/1999/xlink"><defs><style type="text/css"></style></defs><path d="M256 128a128 128 0 0 0-128 128v512a128 128 0 0 0 128 128h512a128 128 0 0 0 128-128V256a128 128 0 0 0-128-128H256z m0-42.666667h512a170.666667 170.666667 0 0 1 170.666667 170.666667v512a170.666667 170.666667 0 0 1-170.666667 170.666667H256a170.666667 170.666667 0 0 1-170.666667-170.666667V256a170.666667 170.666667 0 0 1 170.666667-170.666667z" fill="#5E6E89" opacity=".5" p-id="3191"></path><path d="M443.093333 725.333333c-11.776 0-23.509333-4.650667-32.512-13.866666L226.773333 521.813333a48.512 48.512 0 0 1 0-67.029333 44.970667 44.970667 0 0 1 64.981334 0l151.338666 156.117333 289.152-298.325333a44.885333 44.885333 0 0 1 64.981334 0c17.92 18.517333 17.92 48.512 0 66.986667l-321.664 331.904a45.226667 45.226667 0 0 1-32.469334 13.866666z" fill="#FFFFFF" p-id="3192"></path></svg>